<svg xmlns="http://www.w3.org/2000/svg" viewBox="0 0 40.7 28.5"><defs><style>.cls-1{fill:#fff;}</style></defs><g id="Layer_2" data-name="Layer 2"><g id="Capa_1" data-name="Capa 1"><path class="cls-1" d="M35.5,0H5.2A5.23,5.23,0,0,0,0,5.2V23.3a5.23,5.23,0,0,0,5.2,5.2H35.5a5.23,5.23,0,0,0,5.2-5.2V5.2A5.16,5.16,0,0,0,35.5,0ZM23.6,18.3a2.43,2.43,0,0,1-2.4,2.4H11.1a2.43,2.43,0,0,1-2.4-2.4V10.2a2.43,2.43,0,0,1,2.4-2.4H21.2a2.43,2.43,0,0,1,2.4,2.4Zm7.2-.4a1.45,1.45,0,0,1-2.2,1.2l-3.8-2.2V11.3l3.8-2.2c.1-.1.3-.1.4-.2a1.49,1.49,0,0,1,1.8,1.4Z"/></g></g></svg>