<svg xmlns="http://www.w3.org/2000/svg" viewBox="0 0 8.83 16.33"><defs><style>.cls-1{fill:#3e5a9b;}</style></defs><title>facebook icon</title><g id="Layer_2" data-name="Layer 2"><g id="Layer_1-2" data-name="Layer 1"><path class="cls-1" d="M8.5,0H6.38A3.72,3.72,0,0,0,2.46,4V5.87H.33A.33.33,0,0,0,0,6.2V8.89a.33.33,0,0,0,.33.33H2.46V16a.33.33,0,0,0,.33.33H5.57A.33.33,0,0,0,5.91,16V9.22H8.39a.33.33,0,0,0,.33-.33V6.2A.34.34,0,0,0,8.63,6a.33.33,0,0,0-.24-.1H5.91V4.3c0-.75.18-1.14,1.16-1.14H8.49a.33.33,0,0,0,.33-.33V.34A.33.33,0,0,0,8.5,0Zm0,0"/></g></g></svg>