<?xml version="1.0" encoding="utf-8"?>
<!-- Generator: Adobe Illustrator 24.1.0, SVG Export Plug-In . SVG Version: 6.00 Build 0)  -->
<svg version="1.1" id="Capa_1" xmlns="http://www.w3.org/2000/svg" xmlns:xlink="http://www.w3.org/1999/xlink" x="0px" y="0px"
	 viewBox="0 0 512 512" style="enable-background:new 0 0 512 512;" xml:space="preserve">
<g>
	<path d="M427.5,238.6h-154v-154c0-8-9.4-14.5-17.4-14.5c-8,0-17.4,6.5-17.4,14.5v154h-154c-8,0-14.5,9.4-14.5,17.4
		c0,8,6.5,17.4,14.5,17.4h154v154c0,8,9.4,14.5,17.4,14.5c8,0,17.4-6.5,17.4-14.5v-154h154c8,0,14.5-9.4,14.5-17.4
		C442,248,435.5,238.6,427.5,238.6z"/>
</g>
</svg>
