<svg width="488" height="342" viewBox="0 0 488 342" fill="none" xmlns="http://www.w3.org/2000/svg">
<g clip-path="url(#clip0)">
<path d="M474.499 91.9135L389.166 6.57951C389.162 6.57551 389.158 6.57351 389.155 6.56951C388.661 6.07651 388.143 5.60951 387.603 5.16651C387.356 4.96351 387.096 4.78751 386.842 4.59751C386.539 4.37051 386.242 4.13551 385.926 3.92451C385.622 3.72151 385.307 3.54551 384.995 3.35951C384.709 3.18851 384.43 3.00951 384.136 2.85151C383.818 2.68151 383.492 2.53751 383.167 2.38451C382.86 2.23951 382.558 2.08651 382.244 1.95551C381.929 1.82551 381.607 1.71951 381.287 1.60551C380.95 1.48451 380.618 1.35551 380.274 1.25151C379.954 1.15451 379.628 1.08351 379.305 1.00251C378.954 0.913508 378.607 0.815508 378.25 0.744508C377.875 0.670508 377.497 0.625508 377.12 0.571508C376.809 0.527508 376.503 0.467508 376.187 0.436508C374.787 0.298508 373.376 0.298508 371.976 0.436508C371.661 0.467508 371.355 0.526508 371.043 0.571508C370.666 0.625508 370.287 0.669508 369.913 0.744508C369.555 0.815508 369.209 0.913508 368.858 1.00251C368.534 1.08351 368.209 1.15451 367.889 1.25151C367.545 1.35551 367.212 1.48451 366.876 1.60551C366.556 1.72051 366.234 1.82551 365.919 1.95551C365.604 2.08551 365.303 2.23951 364.996 2.38451C364.672 2.53751 364.345 2.68151 364.027 2.85151C363.733 3.00951 363.454 3.18851 363.168 3.35951C362.856 3.54551 362.541 3.72151 362.237 3.92451C361.921 4.13551 361.625 4.37051 361.321 4.59751C361.067 4.78751 360.807 4.96351 360.56 5.16651C360.02 5.60951 359.501 6.07651 359.008 6.56951C359.004 6.57351 359 6.57551 358.997 6.57951L273.664 91.9125C265.333 100.244 265.333 113.752 273.664 122.083C281.995 130.414 295.503 130.414 303.834 122.083L352.749 73.1675V320.332C352.749 332.114 362.3 341.665 374.082 341.665C385.864 341.665 395.415 332.114 395.415 320.332V73.1685L444.33 122.084C452.661 130.415 466.169 130.415 474.5 122.084C482.83 113.752 482.83 100.245 474.499 91.9135Z" fill="black"/>
<path d="M176.914 219.581L127.999 268.496V21.333C127.999 9.55099 118.448 0 106.666 0C94.8843 0 85.3333 9.55099 85.3333 21.333V268.496L36.4182 219.581C28.0872 211.25 14.5793 211.25 6.24825 219.581C-2.08275 227.912 -2.08275 241.42 6.24825 249.751L91.5812 335.084C91.5852 335.088 91.5893 335.091 91.5933 335.095C92.0863 335.587 92.6052 336.054 93.1442 336.497C93.3912 336.7 93.6523 336.876 93.9063 337.067C94.2093 337.294 94.5063 337.529 94.8213 337.74C95.1253 337.943 95.4403 338.119 95.7523 338.305C96.0383 338.476 96.3173 338.655 96.6113 338.812C96.9293 338.982 97.2562 339.126 97.5812 339.279C97.8872 339.424 98.1893 339.577 98.5033 339.707C98.8183 339.837 99.1403 339.943 99.4603 340.057C99.7973 340.178 100.129 340.307 100.473 340.411C100.793 340.508 101.118 340.579 101.442 340.66C101.793 340.749 102.14 340.847 102.498 340.918C102.873 340.992 103.251 341.036 103.628 341.09C103.939 341.134 104.246 341.194 104.561 341.225C105.961 341.363 107.372 341.363 108.772 341.225C109.087 341.194 109.393 341.135 109.705 341.09C110.082 341.036 110.461 340.992 110.835 340.917C111.193 340.846 111.539 340.748 111.89 340.659C112.214 340.578 112.539 340.507 112.859 340.41C113.203 340.306 113.536 340.177 113.872 340.056C114.192 339.941 114.514 339.836 114.829 339.706C115.143 339.576 115.444 339.423 115.75 339.278C116.075 339.125 116.403 338.981 116.721 338.81C117.014 338.653 117.293 338.474 117.578 338.304C117.89 338.118 118.206 337.941 118.51 337.738C118.825 337.527 119.121 337.293 119.423 337.067C119.678 336.876 119.939 336.699 120.187 336.496C120.722 336.057 121.237 335.593 121.727 335.104C121.735 335.097 121.743 335.09 121.75 335.083L207.083 249.75C215.414 241.419 215.414 227.911 207.083 219.58C198.752 211.249 185.246 211.25 176.914 219.581Z" fill="black"/>
</g>
<defs>
<clipPath id="clip0">
<rect width="487.747" height="341.665" fill="white"/>
</clipPath>
</defs>
</svg>
