<svg height="504pt" viewBox="0 0 504.14205 504" width="504pt" xmlns="http://www.w3.org/2000/svg"><path d="m464.269531 462.03125c-19.964843 9.867188-40.855469 17.738281-62.363281 23.503906h-.085938c-18.402343 4.878906-37.234374 7.972656-56.234374 9.230469-21.15625 1.25-42.390626.09375-63.285157-3.441406-75.542969-12.671875-142.4375-54.640625-197.917969-106.007813-27.773437-24.457031-50.570312-54.039062-67.148437-87.125-15.890625-35.820312-10.171875-77.546875 14.773437-107.769531 6.660157-8.601563 14.519532-16.203125 23.332032-22.578125-23.667969-47.929688-23.332032-72.855469-19.808594-91.910156 4.5-24.25 19-45.488282 39.953125-58.5 3.542969-2.328125 7.214844-4.460938 10.996094-6.378906 3.878906-1.996094 8.242187-2.867188 12.589843-2.519532 12.253907 1.34375 19.558594 5.371094 20.898438 14.351563.980469 8.488281-3.726562 16.613281-11.582031 19.976562-9.859375 4.429688-18.667969 10.894531-25.851563 18.96875-6.976562 11.429688-9.683594 24.957031-7.636718 38.191407.867187 8.523437 2.496093 16.949218 4.867187 25.179687 1.257813 4.699219 2.6875 9.316406 4.195313 14.019531 1.164062 4.152344 2.621093 8.222656 4.367187 12.167969l.082031.085937c.167969-.085937.253906-.085937.421875-.167968 19.699219-9.75 42.234375-12.132813 63.535157-6.714844 3.191406.921875 6.632812 1.84375 10.074218 3.019531 3.214844.929688 6.3125 2.222657 9.230469 3.863281 6.578125 3.726563 12.890625 7.90625 18.886719 12.503907.238281.148437.464844.316406.671875.503906 56.570312 43.226563 94.089843 123.382813 107.269531 202.199219 1.507812.585937 3.019531 1.175781 4.445312 1.761718.152344.578126.265626 1.167969.335938 1.761719 20.28125 7.261719 39.589844 16.988281 57.496094 28.957031.527344.257813 1.007812.597657 1.425781 1.007813 9.847656 7.582031 18.042969 17.09375 24.089844 27.953125.839843-.085938 1.761719-.167969 2.601562-.253906.757813 1.257812 1.511719 2.519531 2.183594 3.777344 31.558594-2.769532 60.769531-3.191407 80.324219 5.371093l1.261718.757813.082032-.085938c8.730468 7.21875 8.476562 15.109375-8.476563 24.339844zm0 0" fill="#c81e1e"/><path d="m437.492188 470.425781c-11.566407 5.707031-23.445313 10.75-35.585938 15.109375h-.085938c-18.402343 4.878906-37.234374 7.972656-56.234374 9.230469-21.15625 1.25-42.390626.09375-63.285157-3.441406-75.542969-12.671875-142.4375-54.640625-197.917969-106.007813-27.773437-24.457031-50.570312-54.039062-67.148437-87.125-15.890625-35.820312-10.171875-77.546875 14.773437-107.769531 6.660157-8.601563 14.519532-16.203125 23.332032-22.578125-23.667969-47.929688-23.332032-72.855469-19.808594-91.910156 4.5-24.25 19-45.488282 39.953125-58.5 10.324219 1.59375 16.453125 5.707031 17.710937 13.847656.980469 8.488281-3.730468 16.613281-11.582031 19.976562-9.859375 4.429688-18.671875 10.894532-25.851562 18.96875-6.980469 11.429688-9.683594 24.957032-7.640625 38.191407.867187 8.519531 2.5 16.949219 4.871094 25.179687 1.257812 4.699219 2.683593 9.316406 4.195312 14.015625 1.132812 4.203125 2.621094 8.304688 4.449219 12.253907 8.519531-3.890626 17.484375-6.738282 26.691406-8.476563.15625-.066406.328125-.097656.503906-.082031 12.21875-2.25 24.796875-1.675782 36.761719 1.675781 3.1875.925781 6.628906 1.847656 10.070312 3.023437 3.21875.929688 6.316407 2.222657 9.234376 3.859376 6.578124 3.726562 12.886718 7.90625 18.886718 12.507812.238282.148438.460938.316406.671875.503906 56.570313 43.226563 94.089844 123.382813 107.265625 202.199219 1.511719.585937 3.023438 1.171875 4.449219 1.761719.152344.578125.265625 1.167968.335937 1.761718 20.277344 7.261719 39.589844 16.984376 57.496094 28.957032.523438.257812 1.007813.597656 1.425782 1.007812 9.847656 7.582032 18.042968 17.09375 24.089843 27.949219.839844-.082031 1.761719-.167969 2.601563-.25.753906 1.257813 1.511718 2.515625 2.183594 3.777344 31.558593-2.769531 60.765624-3.191407 80.324218 5.371093l1.257813.753907.085937-.082031c8.726563 7.21875 8.476563 15.109374-8.480468 24.339843zm0 0" fill="#f44335"/><path d="m302.945312 368.445312c20.625 7.472657 40.09375 17.816407 57.832032 30.71875-17.90625-11.96875-37.214844-21.695312-57.496094-28.957031-.070312-.59375-.183594-1.183593-.335938-1.761719zm0 0" fill="#c03a2b"/><path d="m472.746094 437.691406-.082032.085938-1.261718-.757813c-19.554688-8.5625-48.765625-8.140625-80.324219-5.371093-.671875-1.257813-1.425781-2.519532-2.183594-3.777344 30.554688-2.519532 58.671875-2.6875 77.726563 5.625 2.164062 1.210937 4.214844 2.613281 6.125 4.195312zm0 0" fill="#c03a2b"/><path d="m495.746094 77.613281c-30.921875 27.28125-49.078125 66.210938-50.109375 107.4375-.757813 32.734375 1.257812 67.984375-8.980469 99.542969-13.011719 40.457031-57.414062 64.800781-98.121094 67.148438-5.859375-4.339844-10.84375-9.75-14.6875-15.945313-1.199218-1.710937-2.15625-3.574219-2.855468-5.542969l4.867187-.332031c21.910156-7.808594 33.910156-22.496094 43.730469-56.910156-11.484375 4.6875-23.292969 8.53125-35.335938 11.5-4.90625 1.171875-9.90625 1.929687-14.941406 2.265625-3.667969.28125-7.355469.140625-10.992188-.417969-.300781.003906-.59375-.082031-.839843-.253906-.160157-.164063-.277344-.367188-.335938-.585938-1.007812-2.351562-1.59375-4.953125-2.433593-7.304687-.925782-2.347656-1.847657-4.78125-2.855469-7.132813-.167969-.417969-.335938-.753906-.503907-1.175781-2.179687-5.457031-4.53125-10.828125-7.050781-16.199219-.132812-.292969-.21875-.601562-.25-.921875-.253906-1.511718 1.761719-4.03125 2.683594-5.289062 1.210937-1.628906 2.652344-3.070313 4.28125-4.28125 4.945313-3.34375 10.964844-4.722656 16.871094-3.859375 70.589843 9.484375 94.59375-15.863281 94.59375-59.511719 0-1.257812-.082031-2.515625-.082031-3.859375-7.9375 9.25-17.984376 16.445313-29.292969 20.984375-.839844.25-1.761719.503906-2.601563.753906-11.109375 1.578125-22.4375-.050781-32.652344-4.699218-9.902343-3.355469-20.027343-6.019532-30.300781-7.972657-13.210937-1.890625-26.613281-2.058593-39.867187-.503906-5.0625.304687-10.136719.277344-15.191406-.085937-3.589844-.402344-7.148438-1.019532-10.660157-1.847657-.320312-.03125-.632812-.117187-.925781-.25-1.085938-.863281-1.972656-1.953125-2.601562-3.191406-1.089844-1.257813-2.179688-2.601563-3.355469-3.941406-1.511719-1.847657-3.105469-3.609375-4.703125-5.375-1.84375-1.929688-3.691406-3.859375-5.621094-5.789063-1.007812-1.175781-2.183594-2.351562-3.441406-3.609375-.671875-10.914062 11.75-23.503906 22.410156-36.765625-15.011719-4.902344-31.507812-1.125-42.890625 9.820313-2.917969 2.855469-7.433594 3.277343-10.828125 1.007812-4.449219-3.019531-8.980469-5.875-13.679688-8.558593-2.601562-1.484376-5.292968-2.800782-8.058593-3.945313-.972657-.378906-1.855469-.949219-2.601563-1.679687-.085937 0-.085937 0-.085937-.085938-2.59375-2.351562-3.433594-6.078125-2.097657-9.316406 20.144532-51.535156 80.324219-76.378906 162.246094-54.472656 10.746094 2.804687 21.3125 6.253906 31.644532 10.324218-33.070313 22.328125-38.023438 45.578125-29.378907 60.179688 11.835938 19.808594 48.683594 23.671875 74.871094-11.832032 9.121094-14.050781 22.417969-24.882812 38.019531-30.972656 14.683594-3.964844 29.789063-6.160156 44.992188-6.546875zm0 0" fill="#f57c00"/><path d="m450.753906 84.160156c-19.242187 24.644532-29.992187 54.855469-30.632812 86.117188-.085938 3.1875-.085938 6.378906-.167969 9.652344-.335937 29.964843.417969 61.4375-8.816406 89.894531-11.832031 36.847656-49.769531 60.347656-87.289063 65.972656-1.199218-1.710937-2.15625-3.574219-2.855468-5.542969l4.867187-.332031c21.910156-7.808594 33.910156-22.496094 43.730469-56.910156-11.484375 4.6875-23.292969 8.53125-35.335938 11.5 3.609375-7.132813 32.230469-5.371094 35.253906-15.863281-13.890624 4.292968-64.109374-23.796876-67.652343 2.433593-.167969-.417969-.335938-.753906-.503907-1.175781-2.179687-5.457031-4.53125-10.828125-7.050781-16.199219-.132812-.292969-.21875-.601562-.25-.921875-.253906-1.511718 1.761719-4.03125 2.683594-5.289062 1.210937-1.628906 2.652344-3.070313 4.28125-4.28125 4.945313-3.34375 10.964844-4.722656 16.871094-3.859375 70.589843 9.484375 94.59375-15.863281 94.59375-59.511719 0-1.257812-.082031-2.515625-.082031-3.859375-7.9375 9.25-17.984376 16.445313-29.292969 20.984375-.839844.25-1.761719.503906-2.601563.753906 4.949219-10.070312-10.578125 9.484375-10.996094-4.617187-8.308593 8.5625-5.203124-3.777344-16.789062 0-12.253906 4.03125-18.714844-10.992188-30.382812-14.855469-9.90625-3.351562-20.027344-6.015625-30.300782-7.972656-13.210937-1.890625-26.613281-2.058594-39.867187-.503906-3.96875.238281-7.949219.265624-11.921875.082031-1.84375-1.929688-3.691406-3.859375-5.621094-5.789063-1.007812-1.175781-2.183594-2.351562-3.441406-3.609375-.671875-10.914062 11.75-23.503906 22.410156-36.765625-15.011719-4.902344-31.507812-1.125-42.890625 9.820313-.664063.652343-1.429687 1.191406-2.265625 1.597656 4.113281-8.226563 36.175781-8.394531 43.5625-17.542969-25.179688-16.789062-57.160156-8.140625-66.8125 1.175782-2.59375 2.449218-6.410156 3.078124-9.652344 1.59375-.085937 0-.085937 0-.085937-.085938-2.59375-2.351562-3.433594-6.078125-2.097657-9.316406 20.144532-51.535156 80.324219-76.378906 162.246094-54.472656-44.234375 33.574218-27.195312 67.902343 2.265625 70.503906 11.835938 19.808594 48.683594 23.671875 74.871094-11.832032 9.121094-14.050781 22.417969-24.882812 38.019531-30.972656zm0 0" fill="#ff9801"/><path d="m160.679688 226.09375c-5.917969-.539062-11.765626-1.664062-17.460938-3.359375-29.207031-8.308594-36.007812-27.695313-45.828125-28.199219-2.265625 4.445313-4.53125 8.980469-6.964844 13.34375-18.296875 33.65625-40.457031 61.273438-51.453125 38.191406-4.53125-9.234374-7.132812-26.859374-6.964844-55.648437v-.085937c6.683594-8.554688 14.539063-16.125 23.332032-22.492188-23.667969-47.929688-23.332032-72.855469-19.808594-91.910156 5.351562-28.371094 24.078125-52.410156 50.277344-64.542969.214844-.128906.441406-.242187.671875-.335937 3.878906-1.996094 8.242187-2.867188 12.589843-2.519532 12.253907 1.34375 19.558594 5.371094 20.898438 14.351563.980469 8.488281-3.726562 16.613281-11.582031 19.976562-9.859375 4.429688-18.667969 10.894531-25.851563 18.96875-6.976562 11.429688-9.683594 24.957031-7.636718 38.191407.867187 8.523437 2.496093 16.949218 4.867187 25.179687 1.257813 4.699219 2.6875 9.316406 4.195313 14.019531.167968.417969.757812 2.433594 1.511718 4.699219.613282 2.644531 1.601563 5.1875 2.9375 7.554687 9.332032-4.316406 19.21875-7.3125 29.378906-8.898437 11.539063-1.800781 23.328126-1.113281 34.578126 2.015625 3.191406.921875 6.546874 1.84375 9.988281 3.019531-13.175781 19.976563-10.574219 41.882813 6.210937 65.386719 1.867188 2.710938 1.976563 6.265625.277344 9.089844-1.703125 2.820312-4.894531 4.386718-8.164062 4.003906zm0 0" fill="#549414"/><path d="m143.21875 222.734375c-29.207031-8.308594-36.007812-27.695313-45.828125-28.199219-2.265625 4.445313-4.53125 8.980469-6.964844 13.34375-8.140625-6.796875 5.453125.253906 0 0-10.074219 20.3125-37.183593 41.464844-48.261719 52.375-7.207031-22.558594-10.640624-46.15625-10.15625-69.832031v-.085937c6.683594-8.554688 14.539063-16.125 23.332032-22.492188-23.667969-47.929688-23.332032-72.855469-19.808594-91.910156 5.351562-28.371094 24.078125-52.410156 50.277344-64.542969 4.871094 1.898437 8.316406 6.308594 8.980468 11.496094.980469 8.488281-3.730468 16.613281-11.582031 19.976562-9.859375 4.429688-18.667969 10.894531-25.851562 18.96875-6.976563 11.429688-9.683594 24.957031-7.636719 38.191407.867188 8.523437 2.496094 16.949218 4.867188 25.179687 1.257812 4.699219 2.683593 9.316406 4.195312 14.019531 1.132812 4.203125 2.621094 8.300782 4.449219 12.253906 7.132812-3.277343 14.589843-5.808593 22.242187-7.554687 10.582032-2.546875 21.558594-3 32.316406-1.34375 3.179688.429687 6.320313 1.101563 9.398438 2.015625 3.191406.921875 6.546875 1.84375 9.988281 3.019531-13.175781 19.976563-10.574219 41.882813 6.210938 65.386719 2.097656 2.925781 2.027343 6.882812-.167969 9.734375zm0 0" fill="#60a917"/><path d="m287.921875 308.433594c6.523437 19.59375 11.542969 39.65625 15.023437 60.011718-1.425781-.585937-2.9375-1.175781-4.445312-1.761718-13.179688-78.816406-50.699219-158.972656-107.269531-202.199219 44.148437 31.476563 77.050781 85.109375 96.691406 143.949219zm0 0" fill="#e64c3c"/><path d="m388.894531 427.871094c-.839843.085937-1.761719.167968-2.601562.253906-6.046875-10.859375-14.242188-20.371094-24.089844-27.953125 10.675781 7.339844 19.753906 16.761719 26.691406 27.699219zm0 0" fill="#e64c3c"/><path d="m205.996094 147.195312c-1.78125 0-3.519532-.570312-4.953125-1.625-6.105469-4.457031-12.457031-8.574218-19.019531-12.328124-4.507813-2.484376-9.257813-4.503907-14.175782-6.03125-2.878906-.921876-5.039062-3.320313-5.65625-6.277344-.621094-2.957032.398438-6.019532 2.667969-8.019532 2.269531-1.996093 5.4375-2.617187 8.292969-1.628906 5.992187 1.871094 11.777344 4.359375 17.257812 7.417969 7.097656 4.054687 13.960938 8.503906 20.558594 13.328125 2.929688 2.144531 4.148438 5.933594 3.015625 9.386719-1.132813 3.449219-4.355469 5.78125-7.988281 5.777343zm0 0"/><path d="m329.117188 503.648438c-16.15625-.003907-32.285157-1.355469-48.214844-4.050782-69.238282-11.609375-137.277344-47.992187-202.21875-108.121094-28.628906-25.136718-52.078125-55.617187-69.046875-89.726562-17.171875-38.683594-11.082031-83.742188 15.742187-116.480469 5.707032-7.351562 12.226563-14.039062 19.429688-19.929687-21.59375-45.859375-21.25-70.828125-17.53125-90.933594 5.921875-31.167969 26.550781-57.550781 55.367187-70.816406 5.320313-2.722656 11.289063-3.902344 17.242188-3.410156 17.015625 1.867187 26.53125 9.082031 28.382812 21.464843 1.574219 12.183594-5.101562 23.941407-16.367187 28.839844-8.640625 3.855469-16.378906 9.472656-22.722656 16.492187-5.648438 9.738282-7.746094 21.132813-5.929688 32.246094.820312 8.039063 2.359375 15.988282 4.601562 23.753906 1.242188 4.621094 2.628907 9.105469 4.097657 13.675782l-.015625-.054688c.003906 0 .394531 1.179688.867187 2.703125.097657.304688.214844.699219.359375 1.144531 19.527344-7.964843 41.121094-9.347656 61.503906-3.929687l2.25.648437c2.667969.757813 5.453126 1.558594 8.238282 2.507813 3.765625 1.101563 7.394531 2.640625 10.800781 4.585937 74.953125 42.605469 116.085937 138.761719 130.003906 216.328126 30.992188 12.230468 66.847657 29.828124 84.929688 58.726562 27.703125-2.207031 57.90625-2.777344 79.09375 6.496094.292969.128906.578125.273437.855469.4375 3.992187 2.320312 16.128906 9.386718 15.972656 20.976562-.167969 12.171875-13.984375 19.707032-18.523438 22.183594l-.316406.167969c-37.996094 19.144531-79.414062 30.554687-121.855469 33.570312-5.65625.335938-11.320312.503907-16.996093.503907zm-232.023438-486.820313c-2.390625.050781-4.734375.644531-6.859375 1.738281-24.253906 10.949219-41.625 33.0625-46.519531 59.21875-3.285156 17.820313-3.296875 40.882813 19.148437 86.34375 1.820313 3.679688.710938 8.136719-2.625 10.53125-8.164062 5.90625-15.441406 12.949219-21.609375 20.917969-18.179687 23.386719-31.355468 61.691406-13.796875 99.042969 16.0625 32.144531 38.226563 60.855468 65.257813 84.535156 62.503906 57.871094 127.636718 92.824219 193.601562 103.890625 20.273438 3.425781 40.871094 4.546875 61.398438 3.34375 40.164062-2.878906 79.355468-13.691406 115.316406-31.8125 8.449219-4.632813 9.554688-7.46875 9.625-7.675781-.0625 0-.898438-2.164063-7.210938-5.910156-19.257812-8.203126-50.582031-6.734376-75.789062-4.511719-3.347656.265625-6.535156-1.464844-8.140625-4.414063-15.109375-28.375-52.507813-45.660156-83.402344-57.554687-2.773437-1.066407-4.773437-3.519531-5.261719-6.449219-15.875-95.09375-62.886718-175.292969-122.699218-209.292969-2.390625-1.328125-4.925782-2.382812-7.554688-3.132812-2.75-.9375-5.253906-1.644531-7.652344-2.328125l-2.289062-.65625c-19.546875-4.878906-40.195312-2.578125-58.183594 6.484375-1.082031.480469-2.25.730469-3.433594.730469-6.800781 0-8.417968-5.210938-11.640624-15.59375l-.65625-2.082032c-1.695313-5.234375-3.164063-9.988281-4.453126-14.816406-2.5-8.695312-4.214843-17.601562-5.121093-26.605469-2.308594-15.199219.925781-30.722656 9.109375-43.738281.167968-.230469.339844-.460938.527344-.679688 7.957031-8.957031 17.710937-16.140624 28.628906-21.078124 4.445312-1.808594 7.222656-6.273438 6.878906-11.058594-.320312-2.136719-.894531-5.953125-13.527344-7.335938-.347656-.035156-.707031-.054687-1.066406-.054687zm0 0"/><path d="m162.417969 410.84375c-1.746094 0-3.449219-.542969-4.871094-1.558594-26.8125-19.101562-51.65625-40.828125-74.164063-64.859375-3.070312-3.40625-2.835937-8.644531.523438-11.765625 3.359375-3.125 8.601562-2.972656 11.773438.339844 21.734374 23.199219 45.726562 44.175781 71.621093 62.617188 2.972657 2.121093 4.234375 5.917968 3.117188 9.394531-1.113281 3.476562-4.351563 5.832031-8 5.828125zm0 0"/><path d="m267.292969 460.527344c-.6875.003906-1.371094-.082032-2.035157-.25-20.71875-5.25-40.816406-12.707032-59.949218-22.242188-4.089844-2.089844-5.742188-7.078125-3.707032-11.195312 2.03125-4.117188 7-5.835938 11.144532-3.855469 18.050781 9 37.019531 16.039063 56.570312 21.003906 4.105469 1.03125 6.804688 4.957031 6.289063 9.160157-.511719 4.203124-4.074219 7.363281-8.308594 7.375zm0 0"/><path d="m49.203125 262.847656c-1.292969.003906-2.582031-.148437-3.84375-.445312-15.277344-3.628906-21.960937-25.867188-21.65625-72.101563l16.621094.109375c-.335938 51.328125 8.78125 55.796875 8.875 55.824219 3.824219.804687 19.171875-11.855469 40.707031-55.367187 1.441406-2.992188 4.550781-4.8125 7.867188-4.609376 6.828124 1.144532 13.007812 4.734376 17.375 10.105469 12.285156 12.789063 28.945312 20.457031 46.648437 21.472657-23.585937-33.269532-17.035156-58.703126-6.296875-74.886719l13.851562 9.191406c-13.199218 19.890625-7.839843 42.402344 16.378907 68.808594 2.191406 2.386719 2.792969 5.832031 1.546875 8.820312s-4.117188 4.984375-7.351563 5.105469c-46.222656 1.765625-64.980469-15.867188-76.171875-26.414062-.867187-.8125-1.847656-1.734376-2.804687-2.601563-19.65625 37.859375-37.027344 56.988281-51.746094 56.988281zm0 0"/><path d="m338.535156 360.136719c-1.21875 0-2.425781-.265625-3.53125-.78125-9.847656-6.703125-17.542968-16.113281-22.167968-27.09375-.589844-2.40625-.089844-4.949219 1.371093-6.953125 1.460938-2.003906 3.730469-3.257813 6.207031-3.425782l3.6875-.253906c13.332032-4.964844 23.40625-13.003906 31.996094-34.6875-11.65625 4.375-23.851562 7.136719-36.253906 8.210938-4.246094.28125-8.511719.132812-12.726562-.449219-1.832032-.308594-3.558594-1.054687-5.042969-2.171875-1.175781-1.007812-2.09375-2.28125-2.675781-3.71875-.671876-1.628906-1.167969-3.210938-1.644532-4.796875-.289062-.945313-.570312-1.894531-.925781-2.816406-1.039063-2.742188-2.113281-5.449219-3.214844-8.152344-2.183593-5.328125-4.503906-10.601563-6.902343-15.839844-.488282-1.011719-.820313-2.09375-.988282-3.207031-.207031-4.167969 1.273438-8.246094 4.105469-11.3125 1.757813-2.378906 3.863281-4.476562 6.242187-6.230469 6.679688-4.652343 14.878907-6.589843 22.933594-5.417969 34.019532 4.550782 57.933594.859376 71.066406-10.996093 6.742188-6.394531 11.167969-14.847657 12.582032-24.03125-5.140625 3.859375-10.859375 6.878906-16.945313 8.941406-13.042969 3.253906-26.804687 2.03125-39.066406-3.476563l-1.425781-.476562c-9.527344-3.234375-19.269532-5.800781-29.152344-7.679688-12.496094-1.753906-25.167969-1.886718-37.699219-.402343-5.472656.34375-10.96875.320312-16.441406-.078125-3.046875-.261719-6.074219-.742188-9.058594-1.433594l-2.609375-.53125c-1.117187-.1875-2.199218-.542969-3.210937-1.050781-2.117188-1.175781-3.875-2.902344-5.09375-4.996094-1.253907-1.628906-2.300781-2.898437-3.367188-4.152344-2.980469-3.492187-6.3125-7.085937-9.894531-10.667969-1.3125-1.496093-2.347656-2.511718-3.441406-3.609374-1.445313-1.445313-2.316406-3.375-2.441406-5.417969-.65625-10.636719 6.265624-20.597657 14.636718-30.886719-9.828125.835938-18.824218 5.835938-24.71875 13.742188-2.757812 3.6875-7.972656 4.464843-11.683594 1.742187-6.101562-4.464844-12.453124-8.578125-19.015624-12.328125-4.511719-2.488281-9.261719-4.507812-14.179688-6.035156-4.285156-1.425782-6.675781-5.996094-5.398438-10.332032 7.90625-27.824218 27.402344-50.90625 53.515626-63.359374 39.925781-19.640626 94.730468-17.699219 154.320312 5.445312 2.90625 1.132812 4.945312 3.785156 5.292969 6.886719.351562 3.101562-1.050781 6.136719-3.632813 7.886719-20.628906 13.953124-31.5 30.007812-29.082031 42.949218 1.875 8.324219 8.621094 14.675782 17.042969 16.046875 12.183594 2.773438 30.652344-1.679687 46.074218-22.585937 26.554688-35.984375 50.714844-37.824219 76.296876-39.773438 4.078124-.3125 8.25-.628906 12.554687-1.101562 3.59375-.398438 7.042969 1.554687 8.550781 4.84375 1.507813 3.292968.738282 7.175781-1.914062 9.644531-29.367188 25.683594-46.585938 62.53125-47.441406 101.535156-.136719 5.949219-.179688 12.046875-.226563 18.1875-.203125 27.894531-.414063 56.742188-9.160156 83.699219-15.042969 46.785156-65.300781 70.609375-105.617188 72.9375-.160156.007812-.324219.011719-.484375.011719zm-4.46875-24.441407c2.0625 2.660157 4.332032 5.160157 6.785156 7.46875 35.28125-3.007812 76.054688-24.578124 87.8125-61.140624 7.949219-24.511719 8.152344-52.039063 8.347657-78.65625.042969-6.230469.089843-12.414063.230469-18.511719.78125-35.652344 13.90625-69.929688 37.136718-96.988281-19.902344 1.933593-35.757812 6.308593-54.894531 32.246093-20.246094 27.4375-46.007813 32.945313-63.335937 28.980469-14.941407-2.867188-26.691407-14.4375-29.796876-29.332031-3.089843-16.566407 5.417969-34.386719 23.613282-50.292969-49.492188-16.515625-94.035156-16.910156-126.59375-.886719-19.40625 9.238281-34.535156 25.550781-42.289063 45.59375 3.210938 1.289063 6.324219 2.800781 9.324219 4.527344 4.914062 2.8125 9.707031 5.800781 14.304688 8.917969 13.527343-13.21875 33.28125-17.832032 51.269531-11.972656 2.679687.796874 4.789062 2.875 5.621093 5.542968.832032 2.671875.28125 5.578125-1.46875 7.757813-1.796874 2.234375-3.640624 4.449219-5.46875 6.644531-6.132812 6.359375-11.132812 13.714844-14.792968 21.75.390625.421875.769531.839844 1.125 1.261719 3.460937 3.421875 7.09375 7.34375 10.363281 11.183593 1.175781 1.378907 2.324219 2.769532 3.449219 4.167969.203125.25.414062.53125.621094.839844l.875.175781c2.21875.527344 4.46875.902344 6.742187 1.117188 4.679687.34375 9.378906.371094 14.0625.085937 13.9375-1.609375 28.023437-1.402343 41.90625.609375 10.664063 2.019532 21.171875 4.78125 31.449219 8.265625l1.464844.488281c8.882812 4.242188 18.910156 5.457032 28.550781 3.457032 9.769531-3.984375 18.445312-10.246094 25.304687-18.269532.128906-.132812.265625-.265624.402344-.386718l.273438-.289063c2.367187-2.367187 5.914062-3.101562 9.023437-1.867187 3.113281 1.234375 5.195313 4.199218 5.300781 7.542968.792969 25.660157-5.570312 44.230469-19.464844 56.777344-17.207031 15.527344-44.878906 20.480469-84.550781 15.175782-3.765625-.597657-7.625.238281-10.804687 2.34375-.972656.710937-1.832032 1.566406-2.554688 2.53125l-.234375.308593c2.082031 4.617188 4.078125 9.199219 5.976563 13.835938 1.152344 2.828125 2.269531 5.667969 3.355468 8.519531.40625 1.058594.757813 2.144531 1.09375 3.234375 1.726563.078125 3.457032.058594 5.179688-.058594 15.855469-1.910156 31.34375-6.132812 45.976562-12.527343l1.863282-.703126c2.96875-1.121093 6.3125-.472656 8.648437 1.675782 2.332031 2.148437 3.253907 5.429687 2.386719 8.480468-9.53125 33.40625-22 50.90625-43.589844 60.371094zm0 0"/><path d="m231.183594 168.894531c-2.222656.007813-4.355469-.867187-5.929688-2.433593-1.578125-1.570313-2.460937-3.699219-2.464844-5.917969v-.085938c.023438-4.628906 3.792969-8.363281 8.421876-8.347656 4.632812.015625 8.375 3.777344 8.367187 8.40625-.011719 4.628906-3.765625 8.378906-8.394531 8.378906zm0 0"/><path d="m170.414062 127.890625c-4.636718 0-8.394531-3.757813-8.394531-8.394531.007813-.953125.171875-1.894532.480469-2.792969 1.253906-3.945313 5.195312-6.386719 9.285156-5.75 4.089844.632813 7.105469 4.152344 7.105469 8.292969-.007813.949218-.167969 1.894531-.476563 2.792968-1.109374 3.484376-4.34375 5.851563-8 5.851563zm0 0"/></svg>